<svg xmlns="http://www.w3.org/2000/svg" viewBox="0 0 400 150">
  <rect width="400" height="150" fill="#1a1a2e"/>
  <rect x="10" y="10" width="380" height="100" rx="5" fill="#0f0f1a"/>
  <rect x="20" y="20" width="30" height="20" rx="3" fill="#ff0055"/>
  <rect x="55" y="20" width="30" height="20" rx="3" fill="#00d4ff"/>
  <rect x="90" y="20" width="30" height="20" rx="3" fill="#00ff88"/>
  <rect x="125" y="20" width="30" height="20" rx="3" fill="#ffcc00"/>
  <rect x="160" y="20" width="30" height="20" rx="3" fill="#ff0055"/>
  <rect x="195" y="20" width="30" height="20" rx="3" fill="#00d4ff"/>
  <rect x="230" y="20" width="30" height="20" rx="3" fill="#00ff88"/>
  <rect x="265" y="20" width="30" height="20" rx="3" fill="#ffcc00"/>
  <rect x="300" y="20" width="80" height="20" rx="3" fill="#ff0055"/>
  <rect x="20" y="45" width="360" height="20" rx="3" fill="#2d2d4a"/>
  <rect x="20" y="70" width="360" height="20" rx="3" fill="#2d2d4a"/>
  <rect x="20" y="95" width="100" height="20" rx="3" fill="#2d2d4a"/>
  <rect x="125" y="95" width="200" height="20" rx="3" fill="#2d2d4a"/>
  <text x="200" y="140" font-family="Arial" font-size="12" fill="#00d4ff" text-anchor="middle">Teclado Mecánico RGB</text>
</svg>
